<?xml version="1.0" encoding="UTF-8"?>
<svg id="Ebene_1" data-name="Ebene 1" xmlns="http://www.w3.org/2000/svg" xmlns:xlink="http://www.w3.org/1999/xlink" viewBox="0 0 551.97 544.92">
  <defs>
    <style>
      .cls-1 {
        fill: url(#Unbenannter_Verlauf_100-4);
      }

      .cls-1, .cls-2, .cls-3, .cls-4, .cls-5, .cls-6, .cls-7, .cls-8, .cls-9 {
        stroke-width: 0px;
      }

      .cls-2 {
        fill: url(#Unbenannter_Verlauf_100-2);
      }

      .cls-3 {
        fill: url(#Unbenannter_Verlauf_100-6);
      }

      .cls-4 {
        fill: #fff;
      }

      .cls-5 {
        fill: url(#Unbenannter_Verlauf_100-3);
      }

      .cls-6 {
        fill: url(#Unbenannter_Verlauf_100);
      }

      .cls-7 {
        fill: url(#Unbenannter_Verlauf_100-8);
      }

      .cls-8 {
        fill: url(#Unbenannter_Verlauf_100-7);
      }

      .cls-9 {
        fill: url(#Unbenannter_Verlauf_100-5);
      }
    </style>
    <linearGradient id="Unbenannter_Verlauf_100" data-name="Unbenannter Verlauf 100" x1="153.26" y1="60.13" x2="398.57" y2="485.03" gradientUnits="userSpaceOnUse">
      <stop offset="0" stop-color="#424241"/>
      <stop offset=".11" stop-color="#383837"/>
      <stop offset=".35" stop-color="#282827"/>
      <stop offset=".62" stop-color="#1f1f1d"/>
      <stop offset="1" stop-color="#1d1d1b"/>
    </linearGradient>
    <linearGradient id="Unbenannter_Verlauf_100-2" data-name="Unbenannter Verlauf 100" x1="104.66" y1="318.19" x2="146.42" y2="390.53" xlink:href="#Unbenannter_Verlauf_100"/>
    <linearGradient id="Unbenannter_Verlauf_100-3" data-name="Unbenannter Verlauf 100" x1="115.69" y1="341.39" x2="134.49" y2="373.96" gradientTransform="translate(454.07 169.67) rotate(79.53)" xlink:href="#Unbenannter_Verlauf_100"/>
    <linearGradient id="Unbenannter_Verlauf_100-4" data-name="Unbenannter Verlauf 100" x1="261.77" y1="78.54" x2="303.64" y2="151.05" xlink:href="#Unbenannter_Verlauf_100"/>
    <linearGradient id="Unbenannter_Verlauf_100-5" data-name="Unbenannter Verlauf 100" x1="270.94" y1="96.98" x2="289.74" y2="129.55" xlink:href="#Unbenannter_Verlauf_100"/>
    <linearGradient id="Unbenannter_Verlauf_100-6" data-name="Unbenannter Verlauf 100" x1="397.48" y1="328.98" x2="439.32" y2="401.44" xlink:href="#Unbenannter_Verlauf_100"/>
    <linearGradient id="Unbenannter_Verlauf_100-7" data-name="Unbenannter Verlauf 100" x1="412.1" y1="347.05" x2="430.9" y2="379.61" xlink:href="#Unbenannter_Verlauf_100"/>
    <linearGradient id="Unbenannter_Verlauf_100-8" data-name="Unbenannter Verlauf 100" x1="139.29" y1="35.7" x2="412.68" y2="509.22" xlink:href="#Unbenannter_Verlauf_100"/>
  </defs>
  <ellipse class="cls-4" cx="275.99" cy="272.46" rx="273.37" ry="271.03"/>
  <g>
    <path class="cls-6" d="M519.93,243.46c-2.05-20.48-7.15-40.17-14.84-59.22-5.77-14.28-12.63-28-20.56-41.23-8.04-13.41-17.74-25.51-28.28-36.98-5.96-6.49-12.36-12.54-18.94-18.41-10.35-9.21-21.41-17.42-33.31-24.51-12.09-7.2-24.62-13.51-37.66-18.78-11.31-4.57-22.79-8.72-34.71-11.33-18.42-4.03-37.08-6.02-55.96-5.63-8.47-.11-16.91.17-25.36.99-10.58,1.02-21.11,2.39-31.42,4.91-12.7,3.1-24.98,7.5-37.02,12.62-16.39,6.97-31.92,15.5-46.59,25.56-11.17,7.66-21.19,16.73-30.87,26.18-3.65,3.57-7.06,7.36-10.54,11.1-5.57,5.98-10.9,12.21-15.82,18.71-9.64,12.7-17.39,26.59-24.23,40.98-6.51,13.7-11.82,27.86-15.95,42.46-2.37,8.39-3.73,16.97-4.93,25.58-1.34,9.54-2.16,19.12-2.34,28.75-.28,14.8.29,29.55,2.37,44.24,1.53,10.81,3.61,21.47,6.89,31.9,5.45,17.32,12.46,33.97,21.19,49.88,5.39,9.82,11.21,19.39,18.04,28.3,8.99,11.72,18.85,22.65,29.67,32.7,7.44,6.92,15.12,13.57,23.41,19.45,13.43,9.52,27.69,17.64,42.71,24.37,17.72,7.94,35.87,14.55,55.14,17.74,10.42,1.72,20.87,3.13,31.41,3.5,13.96.49,27.93.5,41.87-1.09,9.05-1.03,18.06-2.25,26.95-4.15,9.54-2.04,18.78-5.16,27.93-8.51,14.4-5.28,28.32-11.62,41.64-19.23,10.27-5.87,20.17-12.33,29.35-19.86,6.5-5.34,12.72-10.99,18.85-16.73,3.89-3.65,7.39-7.69,11-11.61,5.85-6.37,11.45-12.96,16.43-20.02,9.36-13.26,17.37-27.3,24.1-42.08,6.22-13.65,11.52-27.66,15.22-42.19,4.22-16.59,5.99-33.56,6.55-50.64.41-12.59-.12-25.16-1.38-37.71ZM143.29,288.14c1.98-2.45,14.67-21.97,33.14-50.68,8.51-14.08,15.73-26.34,21.47-36.22,28.36-48.77,16.29-29.47,20.83-38.77,3.54-7.25,6.87-14.59,8.95-22.43.44-1.64.6-3.31.52-5-.05-1.01-.18-2.04-1.34-2.4-1.12-.35-1.73.48-2.27,1.23-1.05,1.46-2.08,2.94-3.02,4.47-.58.95-1.28,1.13-2.18.64-4.17-2.29-8.16-4.88-11.95-7.75-.57-.43-.88-.96-.91-1.51-.01-.27.08-.55.57-1.38.6-1.02,1.02-1.55,1.02-1.55,1.74-2.22,2.62-3.33,2.67-4.6.03-.66-.15-.87,0-1.59.19-.89.69-1.55,1.1-1.97.33-.26.76-.67.95-1.29.25-.8-.03-1.5-.13-1.88-.23-.88-.07-2.29,1.75-4.55,1.36-1.72,3.37-4.36,5.6-7.73.42-.63,1.72-2.88,4.18-6.81,4.09-6.55,8.3-13.02,12.42-19.55.38-.61.81-1.12,1.47-1.42,7.43-3.39,14.67-7.24,22.57-9.51,11.3-3.24,22.58-2.94,33.77.5,9.21,2.83,17.28,7.67,24.03,14.53,8.55,8.7,13.96,19.11,16.42,31.09,1.64,8,.91,16.05,1.02,24.1.05,4.15-1.57,7.38-3.77,10.69-7.09,10.68-14,21.48-20.98,32.23-.53.82-.95,1.73-2.28,1.38-.92-.24-1.27.62-1.68,1.24-.76,1.13-1.3,2.32-2.92,2.73-1.16.29-1.56,1.79-2.23,2.79-2.75,4.07-2.74,4.09-7.03,1.48-2.82-1.72-5.62-3.48-8.26-5.48-1.37-1.04-1.42-2.08-.49-3.41.8-1.14,1.5-2.35,2.26-3.51.66-1.01.66-1.97-.25-2.82-.96-.9-1.91-.78-2.97-.03-5.24,3.72-9.7,8.29-13.96,13.04-14.89,16.62-27.94,34.68-41.01,52.71-13.85,19.11-21.78,31.19-31,44.15-.95,1.34-4.84,6.81-9.98,14.16-.89,1.27-1.6,2.3-1.99,2.85-.32-1.03-.82-1.56-1.21-1.85-1.4-1.06-3.99-1-6.23-.95-.28,0-.97.03-1.58-.41-.42-.3-.5-.61-.72-.9-1.14-1.52-4.35-.33-5.01-1.63-.21-.41.05-.64-.23-1.07-.42-.64-1.44-.73-2.26-.69-2.9-.25-5.81-.5-8.71-.75-5.39-.33-10.78-.67-16.17-1-1.05.11-2.55.14-2.92-.58-.39-.77.67-2.03.92-2.34ZM357.4,384.94c-.3.6-2.26.37-3.39.12,0,0,0,0,0,0-14.81-.46-26.8-.87-35.12-1.16-9.4-.33-11.37-.47-16.51-.56-10.5-.17-21-.28-31.49-.53-8.58-.21-17.16-.13-25.73-.13-10.67,0-21.34.2-32,.72-10.59.51-21.2,1.01-31.65,3.04-3.12.61-6.3,1.08-9.11,2.76-.66.39-1.24.84-1.74,1.42-.41.48-.95.95-.66,1.67.31.76.92,1.17,1.75,1.23,1.73.12,3.47.27,5.2.34,1.55.06,2.38.76,2.37,2.35-.05,4.58-.32,9.16-.77,13.72-.06.61-.21,1.04-.52,1.3-.49.41-1.21.3-1.55.24-3.25-.5-4.88-.76-6.12-.46-1.66.39-1.67,1.27-3.13,1.25-1.05-.01-1.79-.64-2.85-.27-.53.19-.84.5-.96.61-.74.68-2.7,1.27-7.97.91-1.04-.07-11.58-.83-18.06-1.26-.76-.05-2.13-.15-3.95-.22-2.76-.12-4.64-.1-6.65-.18-3.24-.12-6.49-.22-9.73-.39-2.06-.11-3.43-1.65-4.98-2.69-6.76-4.51-13.38-9.2-19.02-15.14-7.13-7.51-11.59-16.41-14.07-26.4-2.13-8.62-2.08-17.26-.19-25.86,2.18-9.93,6.74-18.69,13.39-26.41,6.44-7.48,14.32-12.94,23.06-17.32,2.12-1.06,4.16-2.28,6.2-3.48.63-.37,1.23-.58,1.96-.54,14.94.82,29.87,1.62,44.81,2.42.79.04,1.58.14,1.92.93.5,1.15,1.45,1.2,2.47,1.16,1.18-.05,2.26.01,3.16,1.03.76.86,1.94.6,2.97.69.4.03.81.01,1.22.02,4.16.02,4.82.63,4.49,4.78-.27,3.47-.05,6.96-.59,10.42-.25,1.61-.72,2.57-2.64,2.12-1.23-.28-2.54-.18-3.8-.34-1.45-.18-2.39.47-2.83,1.75-.44,1.3.41,2.07,1.43,2.64,3.94,2.22,8.28,3.31,12.62,4.34,11.51,2.74,23.2,4.46,34.92,6.02,11.83,1.57,23.7,2.79,35.57,4.03,8.93.93,17.89,1.5,26.84,2.22,8.2.66,16.4,1.35,24.6,1.95,4.85.35,9.72.53,14.58.83,4.45.28,8.9.63,13.35.95.38.03.79.02,1.05.27.16.15.2.34.22.4.16.56.51.88,1.78,3.07.91,1.56,1.36,2.34,1.42,2.63.29,1.44-.44,1.67-.13,3.13.28,1.31.94,1.43,1,2.72.04.76-.17.99-.13,1.88.05.87.3,1.56.5,2.01,1.92,4.57,3.65,8.2,4.88,10.66h0c2.45,4.9,3.87,7.03,7.05,13.7.25.53.67,1.4,1.24,2.45.1.25.06.39.02.47ZM472.18,365.24c-1.32,5.99-2.99,13.42-8.14,21.65-7.03,11.23-16.8,19.07-29.33,23.38-18.54,6.38-36.21,4.21-53.02-5.64-3.85-2.26-7.58-4.72-11.38-7.08-.86-.53-1.5-1.2-1.97-2.13-6.55-12.87-13.14-25.73-19.72-38.58-.5-.97-.82-1.87-.23-2.95.51-.93,0-1.81-.5-2.61-.57-.92-.91-1.85-.67-2.96.18-.83-.16-1.6-.53-2.33-.63-1.24-1.26-2.48-1.87-3.73-.6-1.21-.44-2.23.76-3,3.57-2.28,7.24-4.37,11.16-6,1.56-.65,2.66-.33,3.34,1.32.51,1.23,1.19,2.39,1.76,3.59.52,1.11,1.25,1.81,2.58,1.55,1.32-.26,1.79-1.27,1.87-2.42.12-1.86-.2-3.7-.59-5.52-2.08-9.68-5.49-18.93-9.03-28.14-6.7-17.45-14.45-34.45-22.36-51.37-11.73-25.1-17.07-35.64-20.93-42.84-3.9-7.28-7.3-13.27-9.73-17.47.5-.72,1-1.45,1.5-2.17.17-.41.49-1.01,1.09-1.5.89-.74,1.49-.52,2.39-1.29.49-.42.28-.46,1.3-1.69.66-.79,1-1.19,1.49-1.45.74-.39,1.05-.16,1.72-.49.89-.44,1.25-1.33,1.48-1.67,2.45-3.73,4.8-7.52,7.36-11.16,1.53-2.18,3.74-5.89,8.45-13.1.57-.87,1.04-1.59,1.34-2.05.04-.07.22-.38.56-.45.41-.09.89.19,1.09.71,3.72,6.79,8.74,15.9,14.72,26.65,4.17,7.49,10.71,19.05,18.07,32.16,8.64,15.37,17.53,30.6,26.71,45.66,8.27,13.57,16.6,27.11,26.75,39.41,1.55,1.88,3.22,3.66,5.04,5.28,1.09.96,2.27,1.82,3.62,2.38.78.32,1.62.41,2.29-.23.66-.64.67-1.5.33-2.27-.69-1.59-1.5-3.14-2.21-4.72-.85-1.9-.5-2.79,1.39-3.76,3.25-1.67,6.48-3.37,9.74-5.02,1.45-.73,2.37-.92,3.07-.65.66.25.94.75,1.76,2.15,2,3.43,2.11,4.38,3.38,5.23.96.64,1.13.27,1.92.94,1.44,1.22.98,2.59,2.38,3.63.84.63,1.23.3,2.26,1,1.01.69,1.56,1.65,1.88,2.38,5.88,13.81,11.77,27.62,17.65,41.43-.02,4.41-.38,10.66-1.98,17.96Z"/>
    <path class="cls-2" d="M125.29,312.37c-22.26-.09-41.97,19.72-41.41,42.22-.41,21.29,17.2,41.69,41.73,41.3,23.68-.38,41.36-17.64,41.67-41.06.3-23.39-18.36-42.36-41.98-42.46ZM161.12,343.25c-.06.47-.3.8-.38.9-3.33,4.59-5.99,9.62-9.09,14.36-1.89,2.89-1.55,2.75-4.75,7.8-2,3.16-3.25,4.99-5.27,6.9-1.61,1.53-3.15,2.58-4.26,3.26-1.5.83-9.53,5.1-18.97,2.09-1.67-.53-7.73-2.57-11.87-8.77-.3-.45-5.08-7.86-3.18-16.71.81-3.77,2.57-6.51,6.09-11.98,1.99-3.09,3.86-5.52,5.23-7.19,2.63-3.22,5.26-6.45,7.9-9.67,2.53-3.52,4.21-5.93,4.55-6.57.04-.08.18-.37.5-.56.32-.19.7-.19,1.11-.16,4.01.34,7.9,1.18,11.53,2.98,3.54,1.75,6.99,3.62,10,6.25,5.07,4.42,8.52,9.87,10.74,16.17.11.32.15.62.11.91Z"/>
    <circle class="cls-5" cx="125.09" cy="357.67" r="18.8" transform="translate(-249.36 415.68) rotate(-79.53)"/>
    <path class="cls-1" d="M264.64,152.25c21.03,10.24,46.15,1.43,56.29-19.9,9.56-20.1.03-46.38-20.56-55.45-19.09-9.44-45.04-2.2-55.14,20.16-9.74,21.59-1.66,44.94,19.41,55.19ZM263.98,97.92c1.19-1.28,5.61-5.9,12.99-7,.54-.08,9.27-1.25,16.47,4.24,3.07,2.34,4.79,5.1,8.24,10.61,1.95,3.12,3.35,5.84,4.28,7.8,1.8,3.75,3.59,7.51,5.39,11.26,2.11,3.79,3.57,6.34,4,6.92.06.08.26.32.29.69.04.37-.13.72-.33,1.07-2.02,3.48-4.44,6.64-7.6,9.17-3.09,2.46-6.25,4.78-9.91,6.39-6.16,2.7-12.56,3.51-19.2,2.83-.34-.03-.63-.13-.87-.29-.4-.26-.59-.61-.65-.72-2.73-4.96-6.15-9.52-9.13-14.34-1.81-2.94-1.83-2.58-5.03-7.62-2-3.15-3.13-5.07-4-7.71-.7-2.11-.99-3.95-1.13-5.24-.12-1.71-.56-10.79,6.19-18.05Z"/>
    <path class="cls-9" d="M272.33,130.27c9.39,4.42,20.6.39,25.02-9,4.42-9.4.39-20.6-9-25.02-9.39-4.42-20.6-.39-25.02,9-4.42,9.39-.39,20.6,9,25.02Z"/>
    <path class="cls-3" d="M445.99,333.87c-15.61-14.49-42.55-14.95-58.6,3.61-15.49,17.91-14.4,42.6,2.87,58.43,17.24,15.81,43.82,14.53,59.63-3.03,14.89-16.54,13.25-44.45-3.91-59.01ZM442.08,372.67c-.26.61-3.94,8.95-12.27,11.79-2.64.9-6.04.97-12.85,1.11-3.07.06-5.63,0-7.44-.06-11.95-.83-20.39-1.39-21.56-1.36-.19,0-.9.04-1.54-.39-.39-.26-.61-.61-.73-.84-1.91-3.55-3.32-7.27-3.81-11.29-.47-3.92-.78-7.83-.23-11.79.93-6.66,3.62-12.53,7.68-17.82.21-.27.44-.46.7-.59.43-.21.83-.18.96-.17,1.67.08,14.03-.14,17-.23.93-.03,2.08-.08,4.73-.16,2.42-.07,3.63-.1,4.4-.11,3.74-.05,5.96,0,8.66.65,2.16.52,3.89,1.23,5.06,1.79,1.52.8,9.48,5.2,12.11,14.75.46,1.69,2.07,7.87-.87,14.73Z"/>
    <path class="cls-8" d="M411.24,347.58c-8.7,5.67-11.15,17.32-5.48,26.02,5.67,8.7,17.32,11.15,26.02,5.48,8.7-5.67,11.15-17.32,5.48-26.02-5.67-8.7-17.32-11.15-26.02-5.48Z"/>
    <path class="cls-7" d="M275.99,0C123.56,0,0,121.98,0,272.46s123.56,272.46,275.99,272.46,275.99-121.98,275.99-272.46S428.41,0,275.99,0ZM275.99,530.81c-144.47,0-261.58-115.62-261.58-258.23S131.52,14.34,275.99,14.34s261.58,115.62,261.58,258.23-117.11,258.23-261.58,258.23Z"/>
  </g>
</svg>